<?xml version="1.0" encoding="utf-8"?>
<!-- Generator: Adobe Illustrator 25.0.1, SVG Export Plug-In . SVG Version: 6.00 Build 0)  -->
<svg version="1.0" id="Layer_1" xmlns="http://www.w3.org/2000/svg" xmlns:xlink="http://www.w3.org/1999/xlink" x="0px" y="0px"
	 viewBox="0 0 423 305.5" style="enable-background:new 0 0 423 305.5;" xml:space="preserve">
<style type="text/css">
	.st0{fill:url(#SVGID_1_);}
</style>
<linearGradient id="SVGID_1_" gradientUnits="userSpaceOnUse" x1="91.9986" y1="152.7262" x2="331.0196" y2="152.7262">
	<stop  offset="0" style="stop-color:#9374B3"/>
	<stop  offset="0.502" style="stop-color:#522784"/>
	<stop  offset="1" style="stop-color:#351B6F"/>
</linearGradient>
<path class="st0" d="M299.5,158v12.9h30.1c1-4.3,1.4-8.6,1.4-12.9H299.5z M299.5,134.6v12H331c0-4.3-0.5-8.1-1.4-12H299.5z
	 M160.8,122.1h48.8v10l-33.5,38.7h33.5v11.5h-50.2v-10l33.5-38.7h-32V122.1z M224.4,122.1h45.9v11.5h-33V146h33v12h-33v12.9h33v11.5
	h-45.9V122.1z M92,152.7c0,66,53.5,119.5,119.5,119.5c55.9,0,102.3-38.2,115.7-89.4v-0.5h-41.1v-60.2h41.1
	C313.8,71,267,33.2,211.5,33.2C145.5,33.2,92,86.8,92,152.7"/>
</svg>
